<svg width="24" height="21" viewBox="0 0 24 21" fill="none" xmlns="http://www.w3.org/2000/svg">
<path fill-rule="evenodd" clip-rule="evenodd" d="M9.36629 1.15279C13.7704 -0.227974 16.0965 -0.151981 18.4317 0.270953C19.2192 0.413678 20.0731 0.842028 20.8263 1.42427C21.5913 2.01573 22.3261 2.82183 22.8331 3.80025C23.3442 4.78663 23.6276 5.95897 23.4532 7.24068C23.2787 8.52322 22.6581 9.82683 21.5079 11.0952L21.4757 11.1303L21.4415 11.1626C20.5526 11.9873 19.5165 12.577 18.0411 12.811C17.8009 13.5224 17.4872 14.4902 17.3077 15.1635C17.2242 15.4766 17.1987 16.0216 17.2061 16.7163C17.2126 17.3189 17.2479 18.0951 17.2247 18.5825L17.2208 18.6567L17.2071 18.7309C17.0838 19.3954 16.7394 19.9158 16.2579 20.2729C15.8025 20.6106 15.2767 20.7649 14.8116 20.8325C13.8946 20.9656 12.9231 20.803 12.3097 20.6284L12.2227 20.604L12.1417 20.5649C11.6926 20.3532 11.1034 19.9217 10.7208 19.2524C10.3067 18.5277 10.1758 17.5876 10.6212 16.5561C10.8632 15.9956 11.0735 15.0419 11.2315 13.9897C11.3257 13.3626 11.3942 12.7397 11.4425 12.2114L8.49227 11.4194L8.46786 11.4126L8.44344 11.4047C7.52288 11.1116 4.97397 10.6023 2.53231 11.0063L2.53133 11.0044C2.04809 11.1014 1.56221 10.9638 1.17782 10.6489C0.79124 10.332 0.534959 9.86997 0.363363 9.35591C0.0214344 8.33133 -0.110708 6.71596 0.104574 4.24459C0.118591 4.0837 0.140282 3.54942 0.279379 3.10396C0.353741 2.86588 0.490934 2.5438 0.764731 2.27193C1.06915 1.96977 1.47644 1.7964 1.93465 1.79634H1.98641L2.03719 1.80123C2.87949 1.87963 4.27485 1.85953 5.7159 1.74068C7.16578 1.62107 8.54085 1.41153 9.36629 1.15279ZM13.6173 12.6655C13.5672 13.1732 13.5004 13.7424 13.4141 14.3169C13.2534 15.3867 13.0118 16.5874 12.6475 17.4311C12.5588 17.6366 12.5448 17.7831 12.5509 17.8803C12.5571 17.9791 12.5868 18.0701 12.6368 18.1577C12.7324 18.3247 12.8934 18.4581 13.0186 18.5327C13.4488 18.6422 14.0295 18.7163 14.4942 18.6489C14.7394 18.6133 14.8778 18.5491 14.9434 18.5004C14.9746 18.4773 15.0011 18.4506 15.0216 18.3862C15.033 17.9859 15.0067 17.4441 14.9991 16.7397C14.9919 16.0725 15.0041 15.2394 15.1759 14.5952C15.3078 14.1002 15.5001 13.4777 15.6876 12.8989C15.0576 12.8626 14.3711 12.7831 13.6173 12.6655ZM18.0382 2.44185C16.0788 2.08698 14.1145 1.97661 10.0264 3.25826C8.96113 3.59221 7.38859 3.8169 5.89754 3.9399C5.77996 3.9496 5.66184 3.95481 5.54403 3.96334C5.72562 4.49521 5.87353 5.08663 5.94539 5.71627C6.05109 6.64268 5.99789 7.66707 5.66219 8.69576C7.13935 8.80112 8.38358 9.07655 9.06356 9.28755H9.06454L12.6983 10.2641C15.0474 10.7264 16.574 10.8021 17.6505 10.6401C18.6595 10.4882 19.3071 10.1218 19.9083 9.57173C20.7888 8.58826 21.1639 7.69821 21.2667 6.94283C21.3708 6.17672 21.208 5.46045 20.8741 4.81587C20.5359 4.16322 20.0267 3.59565 19.4766 3.17037C18.9148 2.73606 18.3818 2.50411 18.0382 2.44185ZM2.30282 4.43599C2.09588 6.81154 2.25938 8.06532 2.45711 8.65767C2.47308 8.70549 2.48971 8.74588 2.50399 8.78072C2.76079 8.74531 3.01764 8.71991 3.27254 8.69966C3.75345 7.79407 3.85361 6.84784 3.75301 5.96627C3.66903 5.23053 3.44452 4.56385 3.20614 4.0522C2.89826 4.05122 2.60617 4.04595 2.337 4.03267C2.32128 4.17334 2.31742 4.26837 2.30282 4.43599Z" fill="#61491E"/>
</svg>
